<?xml version="1.0" encoding="utf-8"?>
<!-- Generator: Adobe Illustrator 24.0.0, SVG Export Plug-In . SVG Version: 6.00 Build 0)  -->
<svg version="1.1" id="Layer_1" xmlns="http://www.w3.org/2000/svg" xmlns:xlink="http://www.w3.org/1999/xlink" x="0px" y="0px"
	 viewBox="0 0 1008.5 218.8" style="enable-background:new 0 0 1008.5 218.8;" xml:space="preserve">
<style type="text/css">
	.st0{fill:#539E38;stroke:#539E38;stroke-width:2;stroke-miterlimit:10;}
	.st1{fill:none;stroke:#539E38;stroke-width:9;stroke-miterlimit:10;}
	.st2{fill:#539E38;}
	.st3{fill:#539E38;stroke:#FFFFFF;stroke-width:7;stroke-miterlimit:10;}
</style>
<g>
	<path class="st0" d="M377.7,173.8l17.7-11.6c6.4-4.2,14.2-5.9,21.6-4.7c18.4,3,21.2,8.6,31.9,8.9c0,0,0.1,0,0.1,0l23.4,0.2
		c3.7,0.1,6.8,2.7,7.7,6.2l0.1,1.5l-29.2,4.9c-1.6,0.3-2.6,1.6-2.4,3.1c0.2,1.4,1.6,2.3,3.1,2.2c0.1,0,0.1,0,0.2,0
		c30.8-5.9,37.9-4.4,49.9-11.8c20.9-12.9,19.7-12.2,20-12.4c1.7-1.3,4.1-1.2,5.5,0.5c0.8,0.9,1.1,2,1,3c2.1-0.6,3.8-1.5,5.5-2.9
		c-0.4-1.2-1-2.4-1.9-3.5c-3.4-3.9-9.5-4.4-13.7-1.2l-2.2,1.4c-1.8,1.1-3.5,2.2-5.3,3.3l-12,7.4c-3.9,2.4-8.2,4.2-12.7,5.2l0-1
		c0-0.1,0-0.3-0.1-0.4c-1.3-6.1-6.7-10.5-13.1-10.7c0,0-0.1,0-0.1,0l-23.4-0.2c-7.4-0.2-8.7-3.1-20.6-6.4c-2.4-0.6-4.9-1.2-7.3-1.8
		c-1.2-0.3-2.3-0.5-3.2-0.6c-8.9-1.5-18.3,0.6-26,5.6l-18.2,11.9C375.3,170.8,376.4,172.4,377.7,173.8z"/>
	<circle class="st1" cx="449.7" cy="110.4" r="96.6"/>
</g>
<g>
	<path class="st2" d="M494.2,84.7c0-1.9-1.6-3.4-3.5-3.4c-18.5,0-34.3,11.1-41.1,26.8c-6.8-15.7-22.6-26.8-41.1-26.8
		c-1.9,0-3.5,1.5-3.5,3.4c0,23,18.1,41.9,41.1,43.6v22.4c0,1.9,1.6,3.4,3.5,3.4s3.5-1.5,3.5-3.4v-22.4
		C476.1,126.5,494.2,107.7,494.2,84.7L494.2,84.7z M412.2,88.3c17.8,1.7,32,15.6,33.8,33.1C428.2,119.7,414,105.8,412.2,88.3z
		 M453.3,121.4c1.7-17.5,15.9-31.4,33.8-33.1C485.4,105.8,471.1,119.7,453.3,121.4z"/>
</g>
<g>
	<path class="st2" d="M490.7,42.9c0-1.8-1.4-3.3-3.2-3.3c-17,0-31.6,10.7-37.8,26c-6.2-15.3-20.8-26-37.8-26c-1.8,0-3.2,1.5-3.2,3.3
		c0,22.3,16.7,40.6,37.8,42.3v21.7c0,1.8,1.4,3.3,3.2,3.3s3.2-1.5,3.2-3.3V85.2C474,83.5,490.7,65.1,490.7,42.9L490.7,42.9z
		 M415.2,46.3c16.4,1.6,29.5,15.2,31.1,32.2C429.9,76.8,416.8,63.3,415.2,46.3z M453,78.5c1.6-17,14.7-30.5,31.1-32.2
		C482.5,63.3,469.5,76.8,453,78.5z"/>
</g>
<g>
	<path class="st3" d="M27.4,86c7.8-6,17-9,27.3-9c12.6,0,23.3,4.5,32.2,13.4c8.9,8.9,13.4,19.6,13.4,32.2v45.6H82.1v-45.6
		c0-7.5-2.7-14-8-19.3c-5.3-5.3-11.8-8-19.3-8c-7.5,0-14,2.7-19.3,8c-5.3,5.3-8,11.8-8,19.3v45.6H9.1V40.5h18.2V86z"/>
	<path class="st3" d="M109.4,58.7V40.5h18.2v18.2H109.4z M127.6,76.9v91.2h-18.2V76.9H127.6z"/>
	<path class="st3" d="M136.7,40.5H155V86c7.8-6,17-9,27.3-9c12.6,0,23.3,4.5,32.2,13.4c8.9,8.9,13.4,19.6,13.4,32.2
		c0,12.6-4.5,23.3-13.4,32.2c-8.9,8.9-19.6,13.4-32.2,13.4c-12.6,0-23.3-4.5-32.2-13.4c-8.9-8.9-13.4-19.6-13.4-32.2V40.5z
		 M163,103.2c-5.3,5.3-8,11.8-8,19.3c0,7.5,2.7,14,8,19.3c5.3,5.3,11.8,8,19.3,8c7.5,0,14-2.7,19.3-8c5.3-5.3,8-11.8,8-19.3
		c0-7.5-2.7-14-8-19.3c-5.3-5.3-11.8-8-19.3-8C174.8,95.2,168.4,97.9,163,103.2z"/>
	<path class="st3" d="M310,159.1c-7.8,6-17,9-27.3,9c-12.6,0-23.3-4.5-32.2-13.4c-8.9-8.9-13.4-19.6-13.4-32.2
		c0-12.6,4.5-23.3,13.4-32.2c8.9-8.9,19.6-13.4,32.2-13.4c12.6,0,23.3,4.5,32.2,13.4c8.9,8.9,13.4,19.6,13.4,32.2v45.6H310V159.1z
		 M282.6,95.2c-7.5,0-14,2.7-19.3,8c-5.3,5.3-8,11.8-8,19.3c0,7.5,2.7,14,8,19.3c5.3,5.3,11.8,8,19.3,8c7.5,0,14-2.7,19.3-8
		c5.3-5.3,8-11.8,8-19.3c0-7.5-2.7-14-8-19.3C296.6,97.9,290.1,95.2,282.6,95.2z"/>
	<path class="st3" d="M660,122.5c0,12.6-4.5,23.3-13.4,32.2c-8.9,8.9-19.6,13.4-32.2,13.4s-23.3-4.5-32.2-13.4
		c-8.9-8.9-13.4-19.6-13.4-32.2c0-12.6,4.5-23.3,13.4-32.2c8.9-8.9,19.6-13.4,32.2-13.4c10.4,0,19.5,3,27.3,9V40.5H660V122.5z
		 M614.4,95.2c-7.5,0-14,2.7-19.3,8c-5.3,5.3-8,11.8-8,19.3c0,7.5,2.7,14,8,19.3c5.3,5.3,11.8,8,19.3,8c7.5,0,14-2.7,19.3-8
		c5.3-5.3,8-11.8,8-19.3c0-7.5-2.7-14-8-19.3C628.4,97.9,622,95.2,614.4,95.2z"/>
	<path class="st3" d="M669.1,58.7V40.5h18.2v18.2H669.1z M687.4,76.9v91.2h-18.2V76.9H687.4z"/>
	<path class="st3" d="M714.7,122.5v45.6h-18.2v-45.6c0-12.6,4.5-23.3,13.4-32.2c8.9-8.9,19.6-13.4,32.2-13.4v18.2
		c-7.5,0-14,2.7-19.3,8C717.4,108.6,714.7,115,714.7,122.5z"/>
	<path class="st3" d="M817.1,140.8h21.6c-2.2,5.1-5.5,9.8-9.7,13.9c-8.9,8.9-19.7,13.4-32.3,13.4s-23.3-4.5-32.2-13.4
		c-8.9-8.9-13.4-19.6-13.4-32.2c0-12.6,4.5-23.3,13.4-32.2c8.9-8.9,19.6-13.4,32.2-13.4s23.3,4.5,32.2,13.4
		c8.9,8.9,13.4,19.6,13.4,32.2c0,3.2-0.3,6.2-0.8,9.1h-70.6c1.3,3.8,3.5,7.2,6.6,10.2c5.3,5.3,11.8,8,19.3,8c7.5,0,14-2.7,19.3-8
		C816.4,141.5,816.8,141.1,817.1,140.8z M822.6,113.4c-1.3-3.8-3.5-7.2-6.6-10.2c-5.3-5.3-11.8-8-19.3-8c-7.5,0-14,2.7-19.3,8
		c-3,3-5.2,6.4-6.6,10.2H822.6z"/>
	<path class="st3" d="M922.9,131.6h18.9c-1.7,8.8-5.9,16.4-12.5,23.1c-8.9,8.9-19.7,13.4-32.3,13.4s-23.3-4.5-32.2-13.4
		c-8.9-8.9-13.4-19.6-13.4-32.2c0-12.6,4.5-23.3,13.4-32.2c8.9-8.9,19.6-13.4,32.2-13.4s23.3,4.4,32.3,13.3
		c6.6,6.7,10.8,14.4,12.5,23.2h-18.9c-1.3-3.8-3.5-7.2-6.6-10.2c-5.3-5.3-11.8-8-19.3-8c-7.5,0-14,2.7-19.3,8
		c-5.3,5.3-8,11.8-8,19.3c0,7.5,2.7,14,8,19.3c5.3,5.3,11.8,8,19.3,8c7.5,0,14-2.7,19.3-8C919.4,138.8,921.6,135.4,922.9,131.6z"/>
	<path class="st3" d="M951.7,40.5H970v36.5h27.3v18.2H970v27.3c0,7.5,2.7,14,8,19.3c5.3,5.3,11.8,8,19.3,8v18.2
		c-12.6,0-23.3-4.5-32.2-13.4c-8.9-8.9-13.4-19.6-13.4-32.2V40.5z"/>
</g>
</svg>
